<svg xmlns="http://www.w3.org/2000/svg" viewBox="0 0 64 64" fill="none">
  <circle cx="32" cy="32" r="30" fill="#F5EEFF" />
  <path d="M14 28c2-9 10-14 18-14 9 0 17 5 19 14" stroke="#5B2FA0" stroke-width="5" stroke-linecap="round"/>
  <path d="M24 27c0-3 3-5 8-5 4 0 8 2 8 5" stroke="#8C55D5" stroke-width="3.5" stroke-linecap="round"/>
  <path d="M30 30c-1 2-2 6-2 10 0 5 2 10 4 10s4-5 4-10c0-4-1-8-2-10" stroke="#5B2FA0" stroke-width="5" stroke-linecap="round"/>
  <circle cx="23" cy="22" r="2.4" fill="#8C55D5"/>
  <circle cx="31" cy="19.5" r="2.2" fill="#8C55D5"/>
  <circle cx="39" cy="22" r="2.4" fill="#8C55D5"/>
</svg>
